<?xml version="1.0" encoding="UTF-8"?>
<svg width="70px" height="69px" viewBox="0 0 70 69" version="1.1" xmlns="http://www.w3.org/2000/svg" xmlns:xlink="http://www.w3.org/1999/xlink">
    <g id="Dataportaal" stroke="none" stroke-width="1" fill="none" fill-rule="evenodd">
        <g id="hotspot-2016-hover">
            <path d="M35.1854796,62.9249711 C49.7316121,62.9249711 61.5235824,52.0495389 61.5235824,38.6340135 C61.5235824,25.218488 49.7316121,14.3430559 35.1854796,14.3430559 C20.6393471,14.3430559 8.84737679,25.218488 8.84737679,38.6340135 C8.84737679,52.0495389 20.6393471,62.9249711 35.1854796,62.9249711 Z M35.1854796,68.9977105 C17.0028139,68.9977105 2.26285109,55.4034203 2.26285109,38.6340135 C2.26285109,21.8646067 17.0028139,8.27031646 35.1854796,8.27031646 C53.3681452,8.27031646 68.1081081,21.8646067 68.1081081,38.6340135 C68.1081081,55.4034203 53.3681452,68.9977105 35.1854796,68.9977105 Z" id="Oval" fill="#666666" fill-rule="nonzero"></path>
            <path d="M34.7776805,59.8205888 C50.0222316,59.8205888 62.380382,48.0570517 62.380382,33.5459933 C62.380382,19.0349349 50.0222316,7.27139777 34.7776805,7.27139777 C19.5331294,7.27139777 7.17497893,19.0349349 7.17497893,33.5459933 C7.17497893,48.0570517 19.5331294,59.8205888 34.7776805,59.8205888 Z M34.7776805,66.3892377 C15.7219916,66.3892377 0.274303539,51.6848163 0.274303539,33.5459933 C0.274303539,15.4071703 15.7219916,0.702748891 34.7776805,0.702748891 C53.8333694,0.702748891 69.2810574,15.4071703 69.2810574,33.5459933 C69.2810574,51.6848163 53.8333694,66.3892377 34.7776805,66.3892377 Z" id="Oval" fill="#000000" fill-rule="nonzero"></path>
            <path d="M34.8145204,57.4384384 C49.3606529,57.4384384 61.1526232,46.5630063 61.1526232,33.1474808 C61.1526232,19.7319554 49.3606529,8.85652319 34.8145204,8.85652319 C20.2683879,8.85652319 8.47641759,19.7319554 8.47641759,33.1474808 C8.47641759,46.5630063 20.2683879,57.4384384 34.8145204,57.4384384 Z M34.8145204,63.5111778 C16.6318548,63.5111778 1.89189189,49.9168876 1.89189189,33.1474808 C1.89189189,16.378074 16.6318548,2.78378378 34.8145204,2.78378378 C52.9971861,2.78378378 67.7371489,16.378074 67.7371489,33.1474808 C67.7371489,49.9168876 52.9971861,63.5111778 34.8145204,63.5111778 Z" id="Oval" fill="#FFFFFF" fill-rule="nonzero"></path>
            <path d="M34.8145204,36.1838505 C36.632787,36.1838505 38.1067833,34.8244215 38.1067833,33.1474808 C38.1067833,31.4705401 36.632787,30.1111111 34.8145204,30.1111111 C32.9962538,30.1111111 31.5222576,31.4705401 31.5222576,33.1474808 C31.5222576,34.8244215 32.9962538,36.1838505 34.8145204,36.1838505 Z M34.8145204,39.2202202 C31.1779873,39.2202202 28.2299947,36.5013622 28.2299947,33.1474808 C28.2299947,29.7935995 31.1779873,27.0747414 34.8145204,27.0747414 C38.4510535,27.0747414 41.3990461,29.7935995 41.3990461,33.1474808 C41.3990461,36.5013622 38.4510535,39.2202202 34.8145204,39.2202202 Z" id="Oval" fill="#FFFFFF" fill-rule="nonzero"></path>
            <ellipse id="Oval" fill="#666666" cx="34.8145204" cy="33.1474808" rx="3.29226285" ry="3.0363697"></ellipse>
            <path d="M34.8145204,48.3293293 C43.9058532,48.3293293 51.2758347,41.5321842 51.2758347,33.1474808 C51.2758347,24.7627774 43.9058532,17.9656323 34.8145204,17.9656323 C25.7231876,17.9656323 18.3532061,24.7627774 18.3532061,33.1474808 C18.3532061,41.5321842 25.7231876,48.3293293 34.8145204,48.3293293 Z M34.8145204,57.4384384 C20.2683879,57.4384384 8.47641759,46.5630063 8.47641759,33.1474808 C8.47641759,19.7319554 20.2683879,8.85652319 34.8145204,8.85652319 C49.3606529,8.85652319 61.1526232,19.7319554 61.1526232,33.1474808 C61.1526232,46.5630063 49.3606529,57.4384384 34.8145204,57.4384384 Z" id="Oval" fill="#E9E382" fill-rule="nonzero"></path>
        </g>
    </g>
</svg>