<?xml version="1.0" encoding="UTF-8"?>
<svg width="68px" height="68px" viewBox="0 0 68 68" version="1.1" xmlns="http://www.w3.org/2000/svg" xmlns:xlink="http://www.w3.org/1999/xlink">
    <g id="Dataportaal" stroke="none" stroke-width="1" fill="none" fill-rule="evenodd">
        <g id="hotspot-2018" transform="translate(-1.000000, -2.000000)">
            <path d="M35.1854796,63.8369272 C49.7316121,63.8369272 61.5235824,52.8038801 61.5235824,39.1939267 C61.5235824,25.5839734 49.7316121,14.5509262 35.1854796,14.5509262 C20.6393471,14.5509262 8.84737679,25.5839734 8.84737679,39.1939267 C8.84737679,52.8038801 20.6393471,63.8369272 35.1854796,63.8369272 Z M35.1854796,69.9976773 C17.0028139,69.9976773 2.26285109,56.2063684 2.26285109,39.1939267 C2.26285109,22.181485 17.0028139,8.39017612 35.1854796,8.39017612 C53.3681452,8.39017612 68.1081081,22.181485 68.1081081,39.1939267 C68.1081081,56.2063684 53.3681452,69.9976773 35.1854796,69.9976773 Z" id="Oval" fill="#666666" fill-rule="nonzero"></path>
            <path d="M34.8145204,58.2708796 C49.3606529,58.2708796 61.1526232,47.2378324 61.1526232,33.6278791 C61.1526232,20.0179257 49.3606529,8.9848786 34.8145204,8.9848786 C20.2683879,8.9848786 8.47641759,20.0179257 8.47641759,33.6278791 C8.47641759,47.2378324 20.2683879,58.2708796 34.8145204,58.2708796 Z M34.8145204,64.4316297 C16.6318548,64.4316297 1.89189189,50.6403208 1.89189189,33.6278791 C1.89189189,16.6154374 16.6318548,2.82412848 34.8145204,2.82412848 C52.9971861,2.82412848 67.7371489,16.6154374 67.7371489,33.6278791 C67.7371489,50.6403208 52.9971861,64.4316297 34.8145204,64.4316297 Z" id="Oval" fill="#FFFFFF" fill-rule="nonzero"></path>
            <path d="M34.8145204,36.7082541 C36.632787,36.7082541 38.1067833,35.3291233 38.1067833,33.6278791 C38.1067833,31.9266349 36.632787,30.547504 34.8145204,30.547504 C32.9962538,30.547504 31.5222576,31.9266349 31.5222576,33.6278791 C31.5222576,35.3291233 32.9962538,36.7082541 34.8145204,36.7082541 Z M34.8145204,39.7886292 C31.1779873,39.7886292 28.2299947,37.0303674 28.2299947,33.6278791 C28.2299947,30.2253907 31.1779873,27.467129 34.8145204,27.467129 C38.4510535,27.467129 41.3990461,30.2253907 41.3990461,33.6278791 C41.3990461,37.0303674 38.4510535,39.7886292 34.8145204,39.7886292 Z" id="Oval" fill="#FFFFFF" fill-rule="nonzero"></path>
            <ellipse id="Oval" fill="#666666" cx="34.8145204" cy="33.6278791" rx="3.29226285" ry="3.08037506"></ellipse>
            <path d="M34.8145204,49.0297544 C43.9058532,49.0297544 51.2758347,42.1340999 51.2758347,33.6278791 C51.2758347,25.1216582 43.9058532,18.2260038 34.8145204,18.2260038 C25.7231876,18.2260038 18.3532061,25.1216582 18.3532061,33.6278791 C18.3532061,42.1340999 25.7231876,49.0297544 34.8145204,49.0297544 Z M34.8145204,58.2708796 C20.2683879,58.2708796 8.47641759,47.2378324 8.47641759,33.6278791 C8.47641759,20.0179257 20.2683879,8.9848786 34.8145204,8.9848786 C49.3606529,8.9848786 61.1526232,20.0179257 61.1526232,33.6278791 C61.1526232,47.2378324 49.3606529,58.2708796 34.8145204,58.2708796 Z" id="Oval" fill="#00a03c" fill-rule="nonzero"></path>
        </g>
    </g>
</svg>
